PathFileType	4	(X/Y/Z)	/Users/itak/Documents/Research/Walk-IL/dataset/trc/00284_00010.trc
DataRate	CameraRate	NumFrames	NumMarkers	Units	OrigDataRate	OrigDataStartFrame	OrigNumFrames
100.000000	100.000000	4	54	mm	100.000000	78	626
Frame#	Time	RPSI			LPSI			L3			STRN			T10			C7			CLAV			RBAK			LBAK			LSHO			LUPA			LAEL			LAOL			LWTS			LWPS			LFRA			LIFD			LHPS			LHTS			RSHO			RUPA			RAEL			RAOL			RWTS			RWPS			RFRA			RIFD			RHTS			RHPS			RBHD			LFHD			RFHD			LBHD			LHIP			RASI			LASI			LKNE			LTHI			LANK			LTIP			LTOE			LMT1			LMT5			LHEE			RKNE			RANK			RTIP			RTOE			RMT5			RHEE			RMT1			RTHI			RHIP			*53			
		X1	Y1	Z1	X2	Y2	Z2	X3	Y3	Z3	X4	Y4	Z4	X5	Y5	Z5	X6	Y6	Z6	X7	Y7	Z7	X8	Y8	Z8	X9	Y9	Z9	X10	Y10	Z10	X11	Y11	Z11	X12	Y12	Z12	X13	Y13	Z13	X14	Y14	Z14	X15	Y15	Z15	X16	Y16	Z16	X17	Y17	Z17	X18	Y18	Z18	X19	Y19	Z19	X20	Y20	Z20	X21	Y21	Z21	X22	Y22	Z22	X23	Y23	Z23	X24	Y24	Z24	X25	Y25	Z25	X26	Y26	Z26	X27	Y27	Z27	X28	Y28	Z28	X29	Y29	Z29	X30	Y30	Z30	X31	Y31	Z31	X32	Y32	Z32	X33	Y33	Z33	X34	Y34	Z34	X35	Y35	Z35	X36	Y36	Z36	X37	Y37	Z37	X38	Y38	Z38	X39	Y39	Z39	X40	Y40	Z40	X41	Y41	Z41	X42	Y42	Z42	X43	Y43	Z43	X44	Y44	Z44	X45	Y45	Z45	X46	Y46	Z46	X47	Y47	Z47	X48	Y48	Z48	X49	Y49	Z49	X50	Y50	Z50	X51	Y51	Z51	X52	Y52	Z52	X53	Y53	Z53	X54	Y54	Z54	

79	0.78	398.7549438476562	986.862548828125	1177.243530273438	340.5081787109375	985.3753051757812	1011.278259277344	387.6609191894531	1058.357543945312	1085.046875	620.7655639648438	1230.93017578125	990.0675659179688	372.8326721191406	1172.186157226562	1087.171264648438	403.197265625	1414.888305664062	1037.767944335938	557.3842163085938	1331.088134765625	998.9118041992188	386.7197570800781	1285.0546875	1137.441162109375	352.3317260742188	1368.203002929688	949.5521850585938	422.5547485351562	1369.404418945312	872.7533569335938	381.0155639648438	1249.215087890625	815.3358154296875	402.8178405761719	1048.480102539062	796.7489624023438	354.9569396972656	1028.678588867188	867.8308715820312	537.9634399414062	856.6475830078125	816.7205810546875	494.493896484375	836.5447998046875	762.6536865234375	434.911376953125	952.5559692382812	782.758056640625	586.9454956054688	676.2194213867188	807.6373901367188	521.5100708007812	752.2603759765625	759.7789306640625	580.0486450195312	767.4673461914062	787.6906127929688	524.4908447265625	1408.3037109375	1164.333251953125	542.78857421875	1356.044799804688	1234.827514648438	555.2879028320312	1094.646728515625	1304.91845703125	497.4747924804688	1077.458251953125	1228.928100585938	651.046142578125	874.3886108398438	1235.720336914062	631.205078125	871.0081176757812	1318.396606445312	585.1633911132812	1029.099243164062	1312.707397460938	677.3399047851562	689.5745239257812	1245.338012695312	697.0452270507812	763.2134399414062	1251.217651367188	664.2843627929688	762.1763916015625	1313.146606445312	466.8027038574219	1584.904907226562	1079.62548828125	554.504150390625	1596.367431640625	888.1658935546875	600.9091186523438	1604.983032226562	967.7486572265625	394.0904541015625	1561.645874023438	955.2720336914062	373.3832397460938	938.5433959960938	896.4769897460938	616.92919921875	939.0078735351562	1134.659790039062	519.9524536132812	941.4535522460938	902.3563232421875	512.2818603515625	473.9710083007812	951.5031127929688	476.1276550292969	610.9613647460938	913.073486328125	451.7061767578125	41.72485733032227	1061.90283203125	481.9655456542969	245.8037567138672	998.7251586914062	668.1770629882812	35.85627365112305	1072.412109375	609.052001953125	27.88686752319336	1126.78173828125	570.032958984375	39.55279541015625	1022.145263671875	421.7250061035156	33.99463272094727	1130.25	660.7084350585938	485.1864318847656	1184.3896484375	350.3111572265625	194.5400238037109	1327.254150390625	608.3341064453125	376.6262512207031	1203.605834960938	451.4484558105469	56.94845199584961	1228.519897460938	411.772705078125	109.1479339599609	1321.6357421875	299.2374267578125	231.6932830810547	1293.018798828125	395.8083801269531	90.95708465576172	1204.833374023438	615.5682373046875	737.1797485351562	1213.557739257812	524.7831420898438	934.2575073242188	1241.185668945312	nan	nan	nan	
80	0.79	407.1846008300781	986.992919921875	1175.171752929688	345.7591857910156	985.4478759765625	1010.3955078125	393.8121337890625	1058.462280273438	1082.650268554688	625.7611083984375	1231.635986328125	984.759521484375	378.3829040527344	1172.832641601562	1084.46142578125	408.9849548339844	1415.484985351562	1034.767944335938	562.5155029296875	1331.79345703125	994.5669555664062	393.2747497558594	1285.405517578125	1134.27294921875	357.5375366210938	1369.022094726562	946.8071899414062	426.7901611328125	1370.278930664062	869.5516357421875	385.3986206054688	1250.007080078125	812.2534790039062	409.3057556152344	1049.814208984375	792.7667236328125	361.7996826171875	1028.78662109375	863.794921875	549.1785888671875	861.5093383789062	810.7842407226562	506.2706604003906	840.7974853515625	756.5894775390625	443.4506530761719	954.9952392578125	777.8758544921875	602.6727905273438	682.4706420898438	800.0399169921875	535.4436645507812	757.30419921875	752.9154052734375	593.5242919921875	773.7039794921875	780.92919921875	531.1076049804688	1408.605102539062	1160.488891601562	549.44970703125	1356.497680664062	1230.836181640625	559.8461303710938	1095.56689453125	1302.084594726562	502.3219604492188	1078.382202148438	1225.715454101562	654.4174194335938	873.7119750976562	1236.353271484375	632.9915161132812	871.2349243164062	1318.728881835938	589.0034790039062	1029.8564453125	1310.844360351562	678.7637329101562	688.770751953125	1248.059448242188	699.16162109375	762.25341796875	1253.726684570312	664.9618530273438	762.0281982421875	1314.9287109375	474.2314453125	1585.583374023438	1076.083862304688	560.2255249023438	1596.1875	883.8531494140625	607.426025390625	1604.552734375	963.0027465820312	400.2180786132812	1562.696533203125	952.346435546875	376.1740112304688	938.5889892578125	894.9396362304688	624.4468383789062	939.8250122070312	1128.009155273438	522.8413696289062	941.9299926757812	897.653564453125	512.1641845703125	473.5659790039062	949.9418334960938	477.0669250488281	610.7589721679688	911.4993896484375	451.6817626953125	41.68174743652344	1061.969360351562	481.6634216308594	245.759521484375	998.2637329101562	668.1302490234375	35.87323379516602	1072.334106445312	608.9691162109375	27.92339515686035	1126.70849609375	570.028076171875	39.52473449707031	1022.052978515625	421.67041015625	34.19913864135742	1130.421142578125	676.3499145507812	487.9017028808594	1172.599731445312	378.7185363769531	186.5588073730469	1322.576049804688	627.065185546875	377.5256958007812	1192.331787109375	484.3427429199219	56.22703552246094	1218.89453125	445.0699768066406	105.4683151245117	1314.089477539062	324.9148864746094	221.8153076171875	1290.598388671875	426.3113708496094	87.61571502685547	1197.638549804688	627.434326171875	739.286865234375	1205.501708984375	534.6463012695312	935.003662109375	1236.515747070312	nan	nan	nan	
81	0.8	415.6827087402344	987.1664428710938	1173.045166015625	351.0712280273438	985.4732666015625	1009.5283203125	399.9338989257812	1058.63720703125	1080.239501953125	630.719482421875	1232.313720703125	979.3596801757812	383.9755859375	1173.450317382812	1081.69189453125	414.7596740722656	1416.084838867188	1031.7255859375	567.6347045898438	1332.488891601562	990.1365966796875	399.8220825195312	1285.762329101562	1131.04296875	362.78271484375	1369.867431640625	943.9951782226562	430.9918823242188	1371.152221679688	866.3003540039062	389.6502380371094	1250.8115234375	809.1446533203125	415.4379272460938	1051.200561523438	788.8711547851562	368.3645629882812	1028.95703125	859.880859375	560.0071411132812	866.6409301757812	804.8349609375	517.617919921875	845.2291259765625	750.5797119140625	451.5647277832031	957.4988403320312	773.06396484375	618.3714599609375	689.25927734375	792.4347534179688	549.077880859375	762.6331787109375	746.111328125	606.6957397460938	780.36572265625	774.1155395507812	537.7645874023438	1408.890380859375	1156.538330078125	556.1942138671875	1356.978271484375	1226.742309570312	564.49072265625	1096.606201171875	1299.342163085938	507.2569274902344	1079.412231445312	1222.63330078125	657.5935668945312	873.17822265625	1236.904418945312	634.8023071289062	871.59521484375	1318.988647460938	592.9075317382812	1030.740966796875	1309.014526367188	679.767578125	688.1403198242188	1250.433715820312	700.9115600585938	761.3920288085938	1255.890380859375	665.4879150390625	761.956298828125	1316.419799804688	481.6627502441406	1586.207763671875	1072.521118164062	565.9202270507812	1596.027954101562	879.5111083984375	613.8952026367188	1604.130737304688	958.2156982421875	406.346923828125	1563.718017578125	949.40283203125	378.9627380371094	938.5401611328125	893.4947509765625	631.9536743164062	940.6762084960938	1121.312744140625	525.6886596679688	942.3259887695312	893.0213012695312	512.0986328125	473.1564636230469	948.4666748046875	478.0914916992188	610.5387573242188	910.0226440429688	451.6810302734375	41.68241119384766	1062.082763671875	481.4294128417969	245.7139129638672	997.8819580078125	668.1041259765625	35.87412261962891	1072.29052734375	608.9044799804688	27.93083572387695	1126.646118164062	570.0272827148438	39.50653076171875	1021.977783203125	421.6492309570312	34.47999572753906	1130.615844726562	691.12841796875	490.6595458984375	1160.733642578125	407.921630859375	177.8708953857422	1316.957153320312	645.2113037109375	378.4329833984375	1180.782592773438	517.3901977539062	55.42303085327148	1207.85400390625	478.8417358398438	101.3946838378906	1305.239135742188	351.4214172363281	211.0282287597656	1287.475219726562	457.1622924804688	84.01516723632812	1189.277221679688	639.0662841796875	741.394775390625	1197.335083007812	544.8264770507812	935.8091430664062	1231.668090820312	nan	nan	nan	
82	0.8100000000000001	424.2559814453125	987.3903198242188	1170.846923828125	356.4287109375	985.457275390625	1008.6650390625	406.0342712402344	1058.91552734375	1077.808959960938	635.6620483398438	1232.935180664062	973.85888671875	389.6287841796875	1174.030883789062	1078.862915039062	420.5365905761719	1416.673950195312	1028.633178710938	572.7615966796875	1333.139892578125	985.6131591796875	406.359619140625	1286.122314453125	1127.757080078125	368.0442199707031	1370.724853515625	941.1279296875	435.1725158691406	1371.998779296875	862.9998168945312	393.7918090820312	1251.60546875	806.0042114257812	421.2439575195312	1052.613403320312	785.0482788085938	374.6498413085938	1029.1611328125	856.0595703125	570.4464111328125	872.0115966796875	798.8984375	528.5441284179688	849.8186645507812	744.6268920898438	459.2809143066406	960.0298461914062	768.3132934570312	633.9824829101562	696.5571899414062	784.837890625	562.4046630859375	768.23193359375	739.3592529296875	619.5406494140625	787.4182739257812	767.2816772460938	544.4833984375	1409.133544921875	1152.470825195312	563.045654296875	1357.453125	1222.53369140625	569.2406616210938	1097.734619140625	1296.67529296875	512.2444458007812	1080.516357421875	1219.7158203125	660.5791625976562	872.754150390625	1237.348876953125	636.6895141601562	872.0704956054688	1319.167846679688	596.9005737304688	1031.723022460938	1307.203491210938	680.3862915039062	687.64501953125	1252.463256835938	702.3158569335938	760.6038208007812	1257.682739257812	665.9322509765625	761.9441528320312	1317.630737304688	489.0837707519531	1586.75048828125	1068.927612304688	571.57763671875	1595.892578125	875.1380004882812	620.3088989257812	1603.720947265625	953.3863525390625	412.4714965820312	1564.683959960938	946.4361572265625	381.7586669921875	938.3873291015625	892.128173828125	639.4357299804688	941.552490234375	1114.56787109375	528.5038452148438	942.6273803710938	888.4542236328125	512.1491088867188	472.7445068359375	947.082275390625	479.2232055664062	610.2872924804688	908.6315307617188	451.7074584960938	41.73093414306641	1062.247924804688	481.2992858886719	245.6629180908203	997.5712280273438	668.0988159179688	35.85617065429688	1072.283325195312	608.8717651367188	27.92914581298828	1126.592041015625	570.030029296875	39.50088500976562	1021.9248046875	421.6806030273438	34.83255767822266	1130.827514648438	705.0309448242188	493.431640625	1148.863403320312	437.8847961425781	168.6495971679688	1310.295532226562	662.7944946289062	379.3691101074219	1169.005249023438	550.3978881835938	54.63498687744141	1195.377075195312	512.9074096679688	97.00193023681641	1294.993774414062	378.7547912597656	199.5011291503906	1283.509765625	488.189208984375	80.21499633789062	1179.62841796875	650.4511108398438	743.468994140625	1189.090576171875	555.25537109375	936.6763305664062	1226.649291992188	nan	nan	nan	
